<?xml version="1.0" encoding="UTF-8" standalone="no"?>
<!-- Generator: Adobe Illustrator 19.0.0, SVG Export Plug-In . SVG Version: 6.00 Build 0)  -->

<svg
   xmlns:dc="http://purl.org/dc/elements/1.1/"
   xmlns:cc="http://creativecommons.org/ns#"
   xmlns:rdf="http://www.w3.org/1999/02/22-rdf-syntax-ns#"
   xmlns:svg="http://www.w3.org/2000/svg"
   xmlns="http://www.w3.org/2000/svg"
   xmlns:sodipodi="http://sodipodi.sourceforge.net/DTD/sodipodi-0.dtd"
   xmlns:inkscape="http://www.inkscape.org/namespaces/inkscape"
   version="1.0"
   id="Layer_1"
   x="0px"
   y="0px"
   width="28"
   height="25.5"
   viewBox="0 0 28 25.5"
   xml:space="preserve"
   inkscape:version="0.91 r13725"
   sodipodi:docname="footer-icon.svg"><metadata
     id="metadata3479"><rdf:RDF><cc:Work
         rdf:about=""><dc:format>image/svg+xml</dc:format><dc:type
           rdf:resource="http://purl.org/dc/dcmitype/StillImage" /><dc:title></dc:title></cc:Work></rdf:RDF></metadata><defs
     id="defs3477" /><sodipodi:namedview
     pagecolor="#ffffff"
     bordercolor="#666666"
     borderopacity="1"
     objecttolerance="10"
     gridtolerance="10"
     guidetolerance="10"
     inkscape:pageopacity="0"
     inkscape:pageshadow="2"
     inkscape:window-width="1920"
     inkscape:window-height="1018"
     id="namedview3475"
     showgrid="false"
     inkscape:zoom="26.700352"
     inkscape:cx="12.44167"
     inkscape:cy="10.761699"
     inkscape:window-x="-8"
     inkscape:window-y="-8"
     inkscape:window-maximized="1"
     inkscape:current-layer="Layer_1" /><g
     id="g3511"
     transform="matrix(0.312601,0,0,0.312601,1.1482194,13.082129)"
     style="fill:#ffffff;fill-opacity:1"><g
       id="XMLID_48_"
       transform="translate(0.14180872,-44.244575)"
       style="fill:#ffffff;fill-opacity:1"><path
         inkscape:connector-curvature="0"
         d="m 42.938377,42.824173 c 11.074497,-6.118664 27.890175,-14.896259 27.890175,-14.896259 0,0 1.198082,-2.367819 -0.297623,-4.958549 -1.495834,-2.590729 -4.145409,-2.737032 -4.145409,-2.737032 0,0 -16.009593,10.173635 -26.845588,16.705442 0.238503,-12.649792 1.044456,-31.6017 1.044456,-31.6017 0,0 -1.4515,-2.221517 -4.443035,-2.221517 -2.991535,0 -4.443033,2.221517 -4.443033,2.221517 0,0 0.805952,18.951908 1.044455,31.6017 C 21.906778,30.405968 5.897187,20.232332 5.897187,20.232332 c 0,0 -2.649577,0.146303 -4.145412,2.737032 -1.4957,2.590731 -0.297621,4.958549 -0.297621,4.958549 0,0 16.815678,8.777596 27.890179,14.896259 -11.074502,6.118661 -27.89018,14.896256 -27.89018,14.896256 0,0 -1.191706,2.378803 0.297621,4.958549 1.489463,2.57975 4.145412,2.73703 4.145412,2.73703 0,0 16.009592,-10.173634 26.845589,-16.705441 -0.238503,12.649792 -1.044455,31.601696 -1.044455,31.601696 0,0 1.464243,2.221519 4.443033,2.221519 2.97879,0 4.443035,-2.221519 4.443035,-2.221519 0,0 -0.805954,-18.951904 -1.044456,-31.601696 10.835995,6.531807 26.845589,16.705441 26.845589,16.705441 0,0 2.655945,-0.15728 4.145409,-2.73703 1.489334,-2.579746 0.297623,-4.958549 0.297623,-4.958549 0,0 -16.815678,-8.777595 -27.890176,-14.896255 z m -10.137027,1.928368 0,0 -5.42e-4,4.08e-4 5.42e-4,-4.08e-4 z m 6.680008,1.37e-4 0,-1.37e-4 8.13e-4,5.42e-4 -8.13e-4,-4.05e-4 z"
         style="fill:#ffffff;fill-opacity:1"
         id="XMLID_49_" /></g><path
       inkscape:connector-curvature="0"
       d="m 32.943429,0.50783201 -1.34e-4,1.34e-4 -0.0014,6.79e-4 -6.79e-4,4.04e-4 L 1.8935407,18.434403 c 1.489463,2.57975 4.145412,2.73703 4.145412,2.73703 0,0 16.0095923,-10.173634 26.8455893,-16.705441 -0.238503,12.649792 -1.044455,31.601696 -1.044455,31.601696 0,0 1.464243,2.221519 4.443033,2.221519 l 0,-35.850703 -1.37e-4,-0.0023 1.37e-4,0 0,-1.34e-4 0,-3.856468 -3.339733,1.92823401 z"
       style="fill:#ffffff;fill-opacity:1"
       id="XMLID_17_" /><path
       inkscape:connector-curvature="0"
       d="m 39.625066,0.50904901 c 0.01057,1.21340199 0.02983,2.53663299 0.05627,3.94039899 1.37e-4,0.0054 2.75e-4,0.01112 4.08e-4,0.01654 10.835995,6.531807 26.845589,16.705441 26.845589,16.705441 0,0 2.655945,-0.15728 4.145409,-2.73703 L 39.625066,0.50904901 Z"
       style="fill:#ffffff;fill-opacity:1"
       id="XMLID_16_-7" /><path
       inkscape:connector-curvature="0"
       d="m 39.625066,-3.349857 c 1.056114,0.597546 2.211754,1.24255 3.440609,1.921452 0.0047,0.0026 0.0098,0.0054 0.01451,0.008 11.074497,-6.118664 27.890175,-14.896259 27.890175,-14.896259 0,0 1.198082,-2.367819 -0.297623,-4.958549 l -31.049571,17.926437 0,1.34e-4 0.0019,-0.0012 z"
       style="fill:#ffffff;fill-opacity:1"
       id="XMLID_15_-9" /><path
       inkscape:connector-curvature="0"
       d="m 32.941259,-3.349857 0.0019,0.0012 0,-1.34e-4 -31.0495763,-17.92642 c -1.49569998,2.590731 -0.297621,4.958549 -0.297621,4.958549 0,0 16.8156783,8.777596 27.8901793,14.896259 0.0047,-0.0026 0.0098,-0.0054 0.01451,-0.008 1.228859,-0.678901 2.384497,-1.323905 3.440611,-1.921451 z"
       style="fill:#ffffff;fill-opacity:1"
       id="XMLID_14_" /><path
       inkscape:connector-curvature="0"
       d="m 36.283163,-5.279312 0,-35.850705 c -2.991535,0 -4.443033,2.221517 -4.443033,2.221517 0,0 0.805952,18.951908 1.044455,31.6017 0.0046,0.0027 0.0096,0.0058 0.01424,0.0085 1.202552,0.724869 2.338802,1.403095 3.384342,2.018947 z"
       style="fill:#ffffff;fill-opacity:1"
       id="XMLID_13_" /><g
       transform="matrix(2.0595351,0,0,2.0595351,-49.237915,-109.26477)"
       id="g3400"
       style="fill:#ffffff;fill-opacity:1"><path
         inkscape:connector-curvature="0"
         id="path3342"
         style="fill:#ffffff;fill-rule:evenodd;fill-opacity:1"
         d="m 55.726702,55.384701 1.063405,-1.221909 -0.833429,-1.389155 1.490796,0.633912 1.063519,-1.221909 -0.142165,1.613727 1.490708,0.633849 -1.578607,0.363475 -0.142166,1.613626 -0.833454,-1.389104 -1.578607,0.363488 z" /><path
         inkscape:connector-curvature="0"
         id="path3344"
         style="fill:#ffffff;fill-rule:evenodd;fill-opacity:1"
         d="m 59.890536,59.012008 1.454342,-0.713397 -0.229095,-1.603712 1.128014,1.16273 1.454329,-0.713384 -0.757245,1.431958 1.127926,1.162768 -1.595928,-0.27773 -0.757258,1.432096 -0.22917,-1.603662 -1.595915,-0.277667 z" /><path
         inkscape:connector-curvature="0"
         id="path3346"
         style="fill:#ffffff;fill-rule:evenodd;fill-opacity:1"
         d="m 59.953935,64.773017 1.343806,0.904537 -0.444975,1.557546 1.275508,-0.998495 1.343831,0.9046 -0.555422,-1.521759 1.275608,-0.99852 -1.618941,0.05808 -0.555498,-1.521646 -0.445001,1.557508 -1.618916,0.05815 z" /><path
         inkscape:connector-curvature="0"
         id="path3348"
         style="fill:#ffffff;fill-rule:evenodd;fill-opacity:1"
         d="m 55.897486,68.451933 0.890392,1.353228 -1.012012,1.26499 1.562194,-0.42855 0.890278,1.353355 0.07523,-1.618261 1.562194,-0.428562 -1.515713,-0.57142 0.07514,-1.618236 -1.012012,1.264964 -1.515687,-0.571508 z" /><path
         inkscape:connector-curvature="0"
         id="path3350"
         style="fill:#ffffff;fill-rule:evenodd;fill-opacity:1"
         d="m 46.490615,53.494441 1.668572,5.13536 5.399588,0 -4.368316,3.173805 1.668585,5.135348 -4.368353,-3.173804 -4.368505,3.173804 1.66861,-5.135348 -4.368353,-3.173805 5.399587,0 1.668585,-5.13536 z" /></g></g></svg>