<?xml version="1.0" encoding="UTF-8" standalone="no"?>
<!-- Generator: Adobe Illustrator 19.0.0, SVG Export Plug-In . SVG Version: 6.00 Build 0)  -->

<svg
   xmlns:dc="http://purl.org/dc/elements/1.1/"
   xmlns:cc="http://creativecommons.org/ns#"
   xmlns:rdf="http://www.w3.org/1999/02/22-rdf-syntax-ns#"
   xmlns:svg="http://www.w3.org/2000/svg"
   xmlns="http://www.w3.org/2000/svg"
   xmlns:sodipodi="http://sodipodi.sourceforge.net/DTD/sodipodi-0.dtd"
   xmlns:inkscape="http://www.inkscape.org/namespaces/inkscape"
   version="1.0"
   id="Layer_1"
   x="0px"
   y="0px"
   width="345"
   height="85"
   viewBox="0 0 345 85"
   xml:space="preserve"
   inkscape:version="0.91 r13725"
   sodipodi:docname="logo.svg"><metadata
     id="metadata24"><rdf:RDF><cc:Work
         rdf:about=""><dc:format>image/svg+xml</dc:format><dc:type
           rdf:resource="http://purl.org/dc/dcmitype/StillImage" /><dc:title></dc:title></cc:Work></rdf:RDF></metadata><defs
     id="defs22" /><sodipodi:namedview
     pagecolor="#ffffff"
     bordercolor="#666666"
     borderopacity="1"
     objecttolerance="10"
     gridtolerance="10"
     guidetolerance="10"
     inkscape:pageopacity="0"
     inkscape:pageshadow="2"
     inkscape:window-width="1920"
     inkscape:window-height="1018"
     id="namedview20"
     showgrid="true"
     inkscape:zoom="3.7296886"
     inkscape:cx="240.33947"
     inkscape:cy="19.947577"
     inkscape:window-x="-8"
     inkscape:window-y="-8"
     inkscape:window-maximized="1"
     inkscape:current-layer="Layer_1"><inkscape:grid
       type="xygrid"
       id="grid3352" /></sodipodi:namedview><g
     id="XMLID_53_"><path
       id="XMLID_54_"
       style="fill:#ffffff"
       d="m 272.18048,52.359951 c 1.2843,1.692169 3.00684,3.078449 5.13074,3.711929 4.80533,1.434006 9.88403,-0.976254 11.96451,-5.458336 l 2.72268,0.811375 c -2.4797,5.979004 -9.10952,9.189789 -15.47687,7.289349 -6.76867,-2.017586 -10.61727,-9.142059 -8.58667,-15.949795 2.01975,-6.770855 8.90958,-9.970665 15.51578,-7.99939 3.3624,1.003635 5.90747,3.169704 7.4701,6.062035 l 0.65847,1.21537 -19.39874,10.317463 z m -1.44485,-8.760239 c -0.64652,2.162941 -0.60096,4.356255 0.0933,6.265369 l 16.87131,-8.936333 c -1.17514,-1.626141 -2.90928,-2.953732 -5.01819,-3.582592 -5.12403,-1.528743 -10.36923,0.966607 -11.94641,6.253556 z"
       inkscape:connector-curvature="0" /></g><g
     id="XMLID_48_"><path
       id="XMLID_49_"
       style="fill:#ff6600"
       d="m 42.938377,42.824173 c 11.074497,-6.118664 27.890175,-14.896259 27.890175,-14.896259 0,0 1.198082,-2.367819 -0.297623,-4.958549 -1.495834,-2.590729 -4.145409,-2.737032 -4.145409,-2.737032 0,0 -16.009593,10.173635 -26.845588,16.705442 0.238503,-12.649792 1.044456,-31.6017 1.044456,-31.6017 0,0 -1.4515,-2.221517 -4.443035,-2.221517 -2.991535,0 -4.443033,2.221517 -4.443033,2.221517 0,0 0.805952,18.951908 1.044455,31.6017 C 21.906778,30.405968 5.897187,20.232332 5.897187,20.232332 c 0,0 -2.649577,0.146303 -4.145412,2.737032 -1.4957,2.590731 -0.297621,4.958549 -0.297621,4.958549 0,0 16.815678,8.777596 27.890179,14.896259 -11.074502,6.118661 -27.89018,14.896256 -27.89018,14.896256 0,0 -1.191706,2.378803 0.297621,4.958549 1.489463,2.57975 4.145412,2.73703 4.145412,2.73703 0,0 16.009592,-10.173634 26.845589,-16.705441 -0.238503,12.649792 -1.044455,31.601696 -1.044455,31.601696 0,0 1.464243,2.221519 4.443033,2.221519 2.97879,0 4.443035,-2.221519 4.443035,-2.221519 0,0 -0.805954,-18.951904 -1.044456,-31.601696 10.835995,6.531807 26.845589,16.705441 26.845589,16.705441 0,0 2.655945,-0.15728 4.145409,-2.73703 1.489334,-2.579746 0.297623,-4.958549 0.297623,-4.958549 0,0 -16.815678,-8.777595 -27.890176,-14.896255 z m -10.137027,1.928368 0,0 -5.42e-4,4.08e-4 5.42e-4,-4.08e-4 z m 6.680008,1.37e-4 0,-1.37e-4 8.13e-4,5.42e-4 -8.13e-4,-4.05e-4 z"
       inkscape:connector-curvature="0" /></g><path
     id="XMLID_17_"
     style="fill:#d85700"
     d="m 32.80162,44.752407 -1.34e-4,1.34e-4 -0.0014,6.79e-4 -6.79e-4,4.04e-4 -31.047675,17.925354 c 1.489463,2.57975 4.145412,2.73703 4.145412,2.73703 0,0 16.009592,-10.173634 26.845589,-16.705441 -0.238503,12.649792 -1.044455,31.601696 -1.044455,31.601696 0,0 1.464243,2.221519 4.443033,2.221519 l 0,-35.850703 -1.37e-4,-0.0023 1.37e-4,0 0,-1.34e-4 0,-3.856468 -3.339733,1.928234 z"
     inkscape:connector-curvature="0" /><path
     id="XMLID_16_"
     style="fill:#d85700"
     d="m 39.483257,44.753624 c 0.01057,1.213402 0.02983,2.536633 0.05627,3.940399 1.37e-4,0.0054 2.75e-4,0.01112 4.08e-4,0.01654 10.835995,6.531807 26.845589,16.705441 26.845589,16.705441 0,0 2.655945,-0.15728 4.145409,-2.73703 L 39.483257,44.753624 Z"
     inkscape:connector-curvature="0" /><path
     id="XMLID_15_"
     style="fill:#d85700"
     d="m 39.483257,40.894718 c 1.056114,0.597546 2.211754,1.24255 3.440609,1.921452 0.0047,0.0026 0.0098,0.0054 0.01451,0.008 11.074497,-6.118664 27.890175,-14.896259 27.890175,-14.896259 0,0 1.198082,-2.367819 -0.297623,-4.958549 l -31.049571,17.926437 0,1.34e-4 0.0019,-0.0012 z"
     inkscape:connector-curvature="0" /><path
     id="XMLID_14_"
     style="fill:#d85700"
     d="m 32.79945,40.894718 0.0019,0.0012 0,-1.34e-4 -31.049576,-17.92642 c -1.4957,2.590731 -0.297621,4.958549 -0.297621,4.958549 0,0 16.815678,8.777596 27.890179,14.896259 0.0047,-0.0026 0.0098,-0.0054 0.01451,-0.008 1.228859,-0.678901 2.384497,-1.323905 3.440611,-1.921451 z"
     inkscape:connector-curvature="0" /><path
     id="XMLID_13_"
     style="fill:#d85700"
     d="m 36.141354,38.965263 0,-35.850705 c -2.991535,0 -4.443033,2.221517 -4.443033,2.221517 0,0 0.805952,18.951908 1.044455,31.6017 0.0046,0.0027 0.0096,0.0058 0.01424,0.0085 1.202552,0.724869 2.338802,1.403095 3.384342,2.018947 z"
     inkscape:connector-curvature="0" /><path
     id="XMLID_40_"
     style="fill:#ffffff"
     d="m 108.515,26.347559 c 1.00228,0 1.88091,0.878626 1.88091,1.880913 0,1.004456 -0.87863,1.880913 -1.88091,1.880913 -1.00229,0 -1.88091,-0.876457 -1.88091,-1.880913 0,-1.002287 0.87862,-1.880913 1.88091,-1.880913 z m 1.42099,7.857748 0,24.200214 -2.84198,0 0,-24.200214 2.84198,0 z"
     inkscape:connector-curvature="0" /><path
     id="XMLID_37_"
     style="fill:#ffffff"
     d="m 138.23212,53.515579 c -1.92212,2.883202 -5.09821,5.601521 -9.99031,5.601521 -7.06157,0 -12.87135,-5.727348 -12.87135,-12.832294 0,-7.063732 5.80978,-12.78891 12.87135,-12.78891 4.8921,0 8.06819,2.674934 9.99031,5.59935 l 0,-4.889938 2.84198,0 0,24.200214 -2.84198,0 0,-4.889943 z m -9.99031,-17.262314 c -5.51692,0 -9.94693,4.514626 -9.94693,10.03154 0,5.558128 4.43001,10.072754 9.94693,10.072754 5.47569,0 9.99031,-4.514626 9.99031,-10.072754 0,-5.516914 -4.51462,-10.03154 -9.99031,-10.03154 z"
     inkscape:connector-curvature="0" /><path
     id="XMLID_35_"
     style="fill:#ffffff"
     d="m 146.92728,34.205307 2.84198,0 0,4.473404 c 0.83523,-2.132568 4.0547,-5.182816 8.15062,-5.182816 6.22633,0 9.65405,3.970093 9.65405,9.654053 l 0,15.255573 -2.84198,0 0,-15.255573 c 0,-4.095921 -3.13486,-6.896683 -7.23077,-6.896683 -4.01131,0 -7.6061,3.260685 -7.73192,7.230778 l 0,14.921478 -2.84198,0 0,-24.200214 z"
     inkscape:connector-curvature="0" /><path
     id="XMLID_32_"
     style="fill:#ffffff"
     d="m 171.3401,46.284805 c 0,-7.063732 5.80979,-12.78891 12.87134,-12.78891 7.10712,0 12.87352,5.725178 12.87352,12.78891 0,7.104946 -5.7664,12.832294 -12.87352,12.832294 -7.06155,10e-7 -12.87134,-5.727348 -12.87134,-12.832294 z m 22.82044,0 c 0,-5.516914 -4.3888,-10.03154 -9.9491,-10.03154 -5.47351,0 -9.94693,4.514626 -9.94693,10.03154 0,5.558128 4.47342,10.072754 9.94693,10.072754 5.5603,0 9.9491,-4.514625 9.9491,-10.072754 z"
     inkscape:connector-curvature="0" /><path
     id="XMLID_30_"
     style="fill:#ffffff"
     d="m 219.95096,39.364311 c -1.7963,-1.796303 -4.3454,-2.967808 -7.10494,-2.967808 -5.47569,0 -9.90571,4.514626 -9.90571,10.03154 0,5.558128 4.43002,10.072754 9.90571,10.072754 2.75954,0 5.30864,-1.169331 7.10494,-2.967808 l 2.00674,1.965523 c -2.38205,2.338669 -5.55812,3.761826 -9.11168,3.761826 -7.10495,0 -12.83014,-5.727348 -12.83014,-12.832294 0,-7.063732 5.72519,-12.78891 12.83014,-12.78891 3.55356,0 6.72963,1.377602 9.11168,3.761826 l -2.00674,1.963351 z"
     inkscape:connector-curvature="0" /><path
     id="XMLID_27_"
     style="fill:#ffffff"
     d="m 223.88419,46.428044 c 0,-7.063732 5.80978,-12.78891 12.87133,-12.78891 7.10712,0 12.87352,5.725178 12.87352,12.78891 0,7.104946 -5.7664,12.832294 -12.87352,12.832294 -7.06155,1e-6 -12.87133,-5.727348 -12.87133,-12.832294 z m 22.82043,0 c 0,-5.516914 -4.38879,-10.03154 -9.9491,-10.03154 -5.47352,0 -9.94693,4.514626 -9.94693,10.03154 0,5.558128 4.47341,10.072754 9.94693,10.072754 5.56031,0 9.9491,-4.514625 9.9491,-10.072754 z"
     inkscape:connector-curvature="0" /><path
     id="XMLID_25_"
     style="fill:#ffffff"
     d="m 266.3924,33.955818 -0.91987,2.631546 c -0.62698,-0.208267 -1.25393,-0.334099 -1.92212,-0.334099 -3.59478,0 -6.47799,2.967808 -6.47799,6.52137 l 0,15.630886 -2.84198,0 0,-24.200214 2.84198,0 0,3.219463 c 1.08691,-2.17379 3.42773,-3.928875 6.47799,-3.928875 0.96107,0 1.92212,0.16705 2.84199,0.459923 z"
     inkscape:connector-curvature="0" /><path
     id="XMLID_1_"
     style="fill:#ffffff"
     d="m 95.387657,28.737343 c -0.929207,0.493958 -1.878204,0.999575 -2.84198,1.514006 l 0,3.953959 -2.84198,0 0,2.84198 2.84198,0 0,15.674274 c 0,3.551392 2.592491,5.68396 5.68396,5.68396 l 2.173783,0 0,-2.84198 -2.173783,0 c -1.544655,0 -2.84198,-0.878628 -2.84198,-2.84198 l 0,-15.674275 5.015763,0 0,-2.84198 -5.015763,0 0,-5.467964 z"
     inkscape:connector-curvature="0" /><g
     id="g3400"
     transform="matrix(2.0595351,0,0,2.0595351,-49.379724,-65.020191)"><path
       d="m 55.726702,55.384701 1.063405,-1.221909 -0.833429,-1.389155 1.490796,0.633912 1.063519,-1.221909 -0.142165,1.613727 1.490708,0.633849 -1.578607,0.363475 -0.142166,1.613626 -0.833454,-1.389104 -1.578607,0.363488 z"
       style="fill:#ffec00;fill-rule:evenodd"
       id="path3342"
       inkscape:connector-curvature="0" /><path
       d="m 59.890536,59.012008 1.454342,-0.713397 -0.229095,-1.603712 1.128014,1.16273 1.454329,-0.713384 -0.757245,1.431958 1.127926,1.162768 -1.595928,-0.27773 -0.757258,1.432096 -0.22917,-1.603662 -1.595915,-0.277667 z"
       style="fill:#ffec00;fill-rule:evenodd"
       id="path3344"
       inkscape:connector-curvature="0" /><path
       d="m 59.953935,64.773017 1.343806,0.904537 -0.444975,1.557546 1.275508,-0.998495 1.343831,0.9046 -0.555422,-1.521759 1.275608,-0.99852 -1.618941,0.05808 -0.555498,-1.521646 -0.445001,1.557508 -1.618916,0.05815 z"
       style="fill:#ffec00;fill-rule:evenodd"
       id="path3346"
       inkscape:connector-curvature="0" /><path
       d="m 55.897486,68.451933 0.890392,1.353228 -1.012012,1.26499 1.562194,-0.42855 0.890278,1.353355 0.07523,-1.618261 1.562194,-0.428562 -1.515713,-0.57142 0.07514,-1.618236 -1.012012,1.264964 -1.515687,-0.571508 z"
       style="fill:#ffec00;fill-rule:evenodd"
       id="path3348"
       inkscape:connector-curvature="0" /><path
       d="m 46.490615,53.494441 1.668572,5.13536 5.399588,0 -4.368316,3.173805 1.668585,5.135348 -4.368353,-3.173804 -4.368505,3.173804 1.66861,-5.135348 -4.368353,-3.173805 5.399587,0 1.668585,-5.13536 z"
       style="fill:#ffec00;fill-rule:evenodd"
       id="path3350"
       inkscape:connector-curvature="0" /></g><path
     inkscape:connector-curvature="0"
     id="XMLID_30_-1"
     style="fill:#ffffff"
     d="m 315.95096,39.364311 c -1.7963,-1.796303 -4.3454,-2.967808 -7.10494,-2.967808 -5.47569,0 -9.90571,4.514626 -9.90571,10.03154 0,5.558128 4.43002,10.072754 9.90571,10.072754 2.75954,0 5.30864,-1.169331 7.10494,-2.967808 l 2.00674,1.965523 c -2.38205,2.338669 -5.55812,3.761826 -9.11168,3.761826 -7.10495,0 -12.83014,-5.727348 -12.83014,-12.832294 0,-7.063732 5.72519,-12.78891 12.83014,-12.78891 3.55356,0 6.72963,1.377602 9.11168,3.761826 l -2.00674,1.963351 z" /><path
     inkscape:connector-curvature="0"
     id="XMLID_35_-7"
     style="fill:#ffffff"
     d="m 321.92728,35.060124 2.84198,0 0,4.473404 c 0.83523,-2.132568 4.0547,-5.182816 8.15062,-5.182816 6.22633,0 9.65405,3.970093 9.65405,9.654053 l 0,15.255573 -2.84198,0 0,-15.255573 c 0,-4.095921 -3.13486,-6.896683 -7.23077,-6.896683 -4.01131,0 -7.6061,3.260685 -7.73192,7.230778 l 0,14.921478 -2.84198,0 0,-24.200214 z" /></svg>